<!-- icon666.com - MILLIONS OF FREE VECTOR ICONS --><svg viewBox="0 0 32 32" xmlns="http://www.w3.org/2000/svg"><g id="departure"><path d="m30 29h-28c-.552 0-1-.448-1-1s.448-1 1-1h28c.552 0 1 .448 1 1s-.448 1-1 1zm-21.026-8.875 20.785-12c.479-.276.642-.888.366-1.366-1.715-2.969-5.056-3.91-8.196-2.196l-3.897 2.25-8.737-3.732c-.29-.124-.621-.104-.893.053l-2.598 1.5c-.284.164-.47.457-.497.783-.027.328.108.647.361.855l5.484 4.511-3.483 2.011-2.752-1.361c-.3-.148-.655-.137-.943.03l-1.732 1c-.479.277-.642.889-.367 1.367l3 5.196c.534.924 1.531 1.499 2.604 1.499.524-.001 1.041-.139 1.495-.4zm-4.464-6.661 2.752 1.361c.299.148.654.136.943-.03l5.196-3c.284-.164.47-.457.497-.784s-.108-.646-.361-.855l-5.484-4.511.916-.528 8.736 3.731c.29.124.62.104.893-.053l4.309-2.488c1.827-.997 3.668-.759 4.901.635l-19.834 11.45c-.462.269-1.101.091-1.366-.366l-2.5-4.33z"></path></g></svg>